# xmcd
#
# Track frame offsets:
# 150
# 2888
# 21655
# 34334
# 57726
# 70865
# 85554
# 104537
# 114186
# 134100
# 137839
# 158329
#
# Disc length: 2344 seconds
#
# Revision: 0
# Processed by: cddbd v1.5.2PL0 Copyright (c) Steve Scherf et al.
# Submitted via: Audion 3.0.2 (http://www.panic.com/audion/)
#
DISCID=a609260c
DTITLE=Zhestokiy Fevral - Gamlet and Angina
DYEAR=1900
DGENRE=
TTITLE0=Intro
TTITLE1=Nasha Beda
TTITLE2=Gosudarstvo
TTITLE3=Periferiya
TTITLE4=Bud Golodnym
TTITLE5=Gamlet
TTITLE6=Boets
TTITLE7=Detskaya Komnata
TTITLE8=Nezhdannyy Gost
TTITLE9=Outro
TTITLE10=Kamni
TTITLE11=Lyuboff
EXTD=
EXTT0=
EXTT1=
EXTT2=
EXTT3=
EXTT4=
EXTT5=
EXTT6=
EXTT7=
EXTT8=
EXTT9=
EXTT10=
EXTT11=
PLAYORDER=
